<svg width="105" height="105" viewBox="0 0 105 105" fill="none" xmlns="http://www.w3.org/2000/svg">
<path d="M91.8751 83.125V87.5H13.1251V83.125L21.8751 74.375V48.125C21.8751 34.5625 30.7563 22.6188 43.7501 18.7688V17.5C43.7501 15.1794 44.672 12.9538 46.3129 11.3128C47.9538 9.67187 50.1794 8.75 52.5001 8.75C54.8207 8.75 57.0463 9.67187 58.6873 11.3128C60.3282 12.9538 61.2501 15.1794 61.2501 17.5V18.7688C74.2438 22.6188 83.1251 34.5625 83.1251 48.125V74.375L91.8751 83.125ZM61.2501 91.875C61.2501 94.1956 60.3282 96.4212 58.6873 98.0622C57.0463 99.7031 54.8207 100.625 52.5001 100.625C50.1794 100.625 47.9538 99.7031 46.3129 98.0622C44.672 96.4212 43.7501 94.1956 43.7501 91.875M86.4063 13.9563L80.1938 20.1688C83.8941 23.8237 86.832 28.1769 88.8372 32.9758C90.8424 37.7747 91.875 42.924 91.8751 48.125H100.625C100.625 35.3062 95.5501 22.9688 86.4063 13.9563M4.37508 48.125H13.1251C13.1251 37.625 17.3251 27.5625 24.8063 20.1688L18.5938 13.9563C14.0783 18.4256 10.496 23.7478 8.05508 29.6135C5.61415 35.4793 4.36325 41.7717 4.37508 48.125V48.125Z" fill="white"/>
</svg>
