<svg width="750" height="725" viewBox="0 0 750 725" fill="none" xmlns="http://www.w3.org/2000/svg">
<path d="M563.588 -235.846C593.454 -281.388 655.782 -293.312 702.799 -262.479L882.524 -144.617C929.541 -113.784 943.445 -51.8667 913.579 -6.32494L814.436 144.856C806.14 157.506 810.003 174.706 823.062 183.271L979.139 285.625C1026.16 316.458 1040.06 378.375 1010.19 423.917L896.029 598.004C866.163 643.546 803.835 655.47 756.818 624.637L630.001 541.472C626.744 539.336 624.445 536.016 623.592 532.215L600.215 428.115C596.965 413.643 604.92 399.182 617.932 392.061C645.453 377.002 669.706 355.237 688.03 327.295C748.592 234.945 721.458 110.089 627.423 48.4208C533.387 -13.2469 408.06 11.6277 347.498 103.977C286.936 196.327 314.07 321.184 408.106 382.852C437.328 402.015 469.571 412.822 501.954 415.843C516.242 417.176 528.899 426.75 532.043 440.751L553.186 534.907C554.076 538.87 553.321 543.023 551.094 546.419L462.928 680.862C433.062 726.404 370.733 738.329 323.717 707.495L143.991 589.633C96.9748 558.8 83.0707 496.883 112.937 451.341L212.08 300.16C220.376 287.51 216.513 270.31 203.454 261.746L47.3763 159.392C0.359661 128.559 -13.5444 66.6416 16.3215 21.0998L130.486 -152.988C160.352 -198.529 222.681 -210.454 269.698 -179.621L425.775 -77.2667C438.834 -68.7023 456.149 -72.0149 464.444 -84.6647L563.588 -235.846Z" fill="black" fill-opacity="0.06"/>
</svg>
