<svg width="121" height="121" viewBox="0 0 121 121" fill="none" xmlns="http://www.w3.org/2000/svg">
<rect x="0.250977" y="0.0131226" width="120.749" height="120.749" rx="33" fill="#FF6F00" fill-opacity="0.08"/>
<path d="M34.8415 38.011L26.4677 38.1146L25.8666 38.7986L25.2655 39.4619V59.4637V79.4655L21.3895 79.507L17.4928 79.5691L17.4306 80.2117C17.3477 81.1237 17.8659 82.2637 18.5499 82.7197C19.1095 83.0721 20.3324 83.0928 43.2775 83.1757C56.5844 83.2171 71.2801 83.1757 75.9851 83.0928L84.5041 82.9477L84.1102 82.2844C83.7786 81.7455 83.7164 81.2481 83.7164 79.3411V77.0404L81.7059 76.9161C80.5866 76.8331 67.943 76.771 53.6204 76.771H27.5455V58.531V40.291H58.8437H90.1419V44.1255V47.9601H91.2819H92.4219V43.7317C92.4219 39.7728 92.4011 39.4826 91.9866 38.9644C91.0124 37.7415 92.5255 37.8037 66.7822 37.8451C53.807 37.8866 39.443 37.9488 34.8415 38.011ZM66.0982 79.4448C66.0982 79.5484 65.9117 79.8386 65.7044 80.1081L65.3106 80.6055L58.9681 80.6677L52.6255 80.7299L52.1073 80.2117C51.8171 79.9215 51.5891 79.5899 51.5891 79.4655C51.5891 79.3204 53.9313 79.2582 58.8437 79.2582C62.9477 79.2582 66.0982 79.3411 66.0982 79.4448Z" fill="#FF6F00"/>
<path d="M56.2527 44.1049C55.2786 44.5194 54.3044 45.4522 53.8276 46.3642C53.4546 47.1103 53.4131 47.4627 53.5167 49.2452C53.5789 50.3645 53.5582 51.2765 53.4546 51.2765C52.9156 51.2765 53.2058 53.3492 53.8484 54.0747C54.0556 54.3027 54.3251 55.0282 54.4495 55.6707C54.5738 56.3132 54.9262 57.2252 55.2164 57.6812C55.6309 58.3652 55.7346 58.7798 55.7346 59.8991C55.7346 61.1842 55.6931 61.3292 55.0091 62.0754C54.3458 62.8216 54.2836 62.9874 54.2836 64.2103C54.2836 66.2209 54.4495 66.7598 55.1542 67.05C55.4858 67.1743 55.9004 67.5682 56.0662 67.8998C56.9782 69.6616 54.7604 71.3612 53.1644 70.1176C52.7498 69.786 52.6255 69.5165 52.6255 68.874C52.6255 68.418 52.7498 67.8376 52.9156 67.5889C53.1436 67.2365 53.1644 66.6769 53.0607 65.1638C52.9156 62.8631 53.0193 62.9252 50.6356 64.0031C47.8996 65.2674 47.2778 66.3452 46.7804 70.47C46.5524 72.4391 46.5731 72.6671 46.9047 72.9987C47.2156 73.3303 48.1691 73.3511 58.284 73.4132C64.3571 73.4547 69.6218 73.4132 69.9742 73.3511C71.0106 73.1645 71.1349 72.7085 70.8862 70.3871C70.4509 66.4282 69.8498 65.4125 67.1138 64.0445C65.0411 63.0082 64.8546 63.0289 64.8546 64.4176C64.8546 65.3711 64.9167 65.5783 65.3727 65.8685C66.2018 66.4074 66.4506 67.1951 66.5542 69.4958C66.6578 71.4027 66.6164 71.6929 66.2847 72.0245C65.7666 72.5427 65.1655 72.522 64.6473 72.0038C64.0876 71.4442 64.1291 70.9052 64.7509 70.2212C65.1447 69.8067 65.2691 69.4336 65.2691 68.7496C65.2691 67.5682 64.9789 67.0707 64.0876 66.6976C63.2793 66.3452 62.6989 66.4696 61.9942 67.1122C61.1651 67.8583 60.8956 68.5423 61.1651 69.2678C61.704 70.6565 59.9422 71.6722 59.1338 70.4285C58.7815 69.9311 58.8022 69.8689 59.5898 68.3558C60.6469 66.3245 61.4967 65.454 62.616 65.226C63.5073 65.0602 63.5073 65.0394 63.5695 64.086C63.6316 63.1947 63.5487 63.0289 62.8233 62.2205C62.1393 61.4743 61.9735 61.122 61.8698 60.1685C61.7247 59.0907 61.7869 58.8834 62.4295 57.6812C62.8233 56.9558 63.2171 55.9402 63.2793 55.422C63.3622 54.9038 63.6316 54.282 63.8596 54.0332C64.3364 53.5151 64.6887 51.2765 64.2742 51.2765C64.1498 51.2765 64.1084 50.5303 64.1706 49.1416C64.2742 47.2969 64.2327 46.8823 63.8596 46.0532C63.6316 45.5143 63.1964 44.934 62.9269 44.7474C61.6418 43.9183 57.5793 43.5245 56.2527 44.1049Z" fill="#FF6F00"/>
<path d="M86.2866 49.2037C86.0586 49.2866 85.6233 49.6597 85.3332 49.9913L84.815 50.6132L84.6906 57.619C84.5041 66.511 84.5248 78.0353 84.7321 80.1703C84.8564 81.6212 84.9393 81.8492 85.499 82.3673L86.1415 82.927L91.199 83.0513C93.9972 83.1343 97.1684 83.1343 98.2463 83.0513C100.112 82.927 100.215 82.9063 100.879 82.2223L101.542 81.5175V66.283C101.542 49.4732 101.604 50.2401 100.236 49.411C99.6143 49.0172 99.1583 48.9964 93.1473 49.0172C89.6237 49.0172 86.5353 49.1001 86.2866 49.2037ZM89.2506 50.8619L89.4786 51.4837H91.3441C92.3597 51.4837 94.0386 51.4215 95.075 51.3593C96.7746 51.235 96.9612 51.1728 97.1684 50.7375C97.355 50.3023 97.5415 50.2401 98.4328 50.2401C99.2826 50.2401 99.5935 50.3437 99.9873 50.7583L100.506 51.2557V66.055C100.506 80.3361 100.485 80.8957 100.112 81.3517L99.7179 81.8492H93.1888C87.2608 81.8492 86.6183 81.8077 86.2659 81.4761C85.8721 81.1444 85.8513 80.647 85.727 69.019C85.6441 62.3655 85.6441 55.6084 85.727 53.971C85.8928 50.3852 85.9757 50.2401 87.8204 50.2401C88.9604 50.2401 89.0226 50.2608 89.2506 50.8619Z" fill="#FF6F00"/>
<path d="M91.8206 60.1477C90.577 60.7695 90.2868 61.3913 90.121 63.6713C90.0588 64.7698 89.893 65.9306 89.7686 66.2208C89.5614 66.7597 89.5614 66.7804 90.577 66.9048C91.5304 67.0291 91.5926 67.0706 91.5926 67.6717C91.5926 68.3349 91.4061 68.48 88.9188 69.8273C87.5923 70.5528 86.8254 71.6098 87.2399 72.1073C87.4472 72.356 88.3177 72.4182 92.3181 72.4182C98.2254 72.4182 99.0544 72.3353 99.0544 71.6928C99.0544 71.0295 98.2461 70.2626 96.7744 69.5164C95.1992 68.7288 94.4944 68.0448 94.4944 67.34C94.4944 66.8426 94.5566 66.8218 95.2821 66.9255C96.3806 67.0913 96.6915 66.8426 96.4014 65.9928C96.277 65.6404 96.1112 64.5211 96.0283 63.5055C95.8624 61.3498 95.4686 60.5208 94.3908 60.0648C93.4374 59.6709 92.6704 59.6917 91.8206 60.1477Z" fill="#FF6F00"/>
</svg>
