<svg width="57" height="56" viewBox="0 0 57 56" fill="none" xmlns="http://www.w3.org/2000/svg">
<path d="M55.6977 28C55.6977 12.8956 43.4532 0.651123 28.3488 0.651123C13.2445 0.651123 1 12.8956 1 28C1 43.1043 13.2445 55.3488 28.3488 55.3488C43.4532 55.3488 55.6977 43.1043 55.6977 28Z" stroke="#066365"/>
<path d="M33.6582 18.217H31.0796C30.4331 18.1806 29.7864 18.2832 29.1829 18.5179C28.5795 18.7527 28.0335 19.1142 27.5816 19.5779C27.1297 20.0416 26.7825 20.5968 26.5635 21.2061C26.3444 21.8154 26.2586 22.4646 26.3118 23.1099V25.3668H23.7188C23.6655 25.3667 23.6127 25.377 23.5634 25.3973C23.5141 25.4176 23.4693 25.4474 23.4316 25.485C23.3938 25.5226 23.3639 25.5673 23.3435 25.6166C23.323 25.6658 23.3125 25.7186 23.3125 25.7719V29.0264C23.3128 29.1339 23.3558 29.2369 23.432 29.3128C23.5081 29.3888 23.6113 29.4314 23.7188 29.4314H26.3118V37.6803C26.3118 37.7877 26.3544 37.8907 26.4304 37.9667C26.5063 38.0427 26.6093 38.0853 26.7168 38.0853H30.1028C30.2102 38.0853 30.3132 38.0427 30.3892 37.9667C30.4652 37.8907 30.5078 37.7877 30.5078 37.6803V29.4314H33.5383C33.6459 29.4314 33.7491 29.3888 33.8252 29.3128C33.9014 29.2369 33.9443 29.1339 33.9447 29.0264V25.7562C33.9447 25.7029 33.9342 25.6502 33.9137 25.6009C33.8933 25.5517 33.8633 25.507 33.8256 25.4694C33.7878 25.4318 33.743 25.4019 33.6937 25.3817C33.6445 25.3614 33.5916 25.351 33.5383 25.3512H30.5065V23.4381C30.5065 22.5186 30.7253 22.0524 31.9235 22.0524H33.6582C33.7657 22.0524 33.8688 22.0098 33.945 21.9338C34.0212 21.8579 34.0641 21.7549 34.0645 21.6474V18.6117C34.0645 18.5041 34.0219 18.401 33.946 18.3248C33.87 18.2486 33.767 18.2057 33.6595 18.2053L33.6582 18.217Z" fill="#057476" stroke="#066365"/>
</svg>
