<svg width="57" height="56" viewBox="0 0 57 56" fill="none" xmlns="http://www.w3.org/2000/svg">
<path d="M55.5585 28C55.5585 12.8956 43.314 0.651123 28.2097 0.651123C13.1053 0.651123 0.86084 12.8956 0.86084 28C0.86084 43.1043 13.1053 55.3488 28.2097 55.3488C43.314 55.3488 55.5585 43.1043 55.5585 28Z" stroke="#066365"/>
<path d="M39.231 25.6725V21.9075H37.3492V25.6725H33.5815V27.5557H37.3466V31.3207H39.2284V27.5557H42.9934V25.6725H39.231Z" fill="#057476"/>
<path d="M22.6479 25.6688V29.3882H27.9731C27.5841 30.5256 26.8406 31.5084 25.8518 32.1922C24.8631 32.8759 23.6812 33.2247 22.4796 33.1872C21.2781 33.1497 20.1202 32.728 19.1759 31.984C18.2317 31.2399 17.5509 30.2128 17.2335 29.0533C16.916 27.8938 16.9787 26.6631 17.4123 25.5419C17.8458 24.4207 18.6274 23.4679 19.6423 22.8237C20.6573 22.1794 21.852 21.8775 23.0511 21.9622C24.2503 22.047 25.3907 22.514 26.3049 23.2946L28.7793 20.4894C27.1667 19.1249 25.1362 18.3523 23.0244 18.2997C20.9126 18.2472 18.8462 18.9178 17.1678 20.2004C15.4893 21.483 14.2994 23.3007 13.7954 25.3522C13.2914 27.4036 13.5035 29.5657 14.3966 31.4801C15.2896 33.3945 16.81 34.9463 18.7057 35.8784C20.6014 36.8104 22.7587 37.0666 24.8201 36.6047C26.8814 36.1428 28.723 34.9904 30.0397 33.3385C31.3564 31.6866 32.0692 29.6344 32.0598 27.522V25.6688H22.6479Z" fill="#057476"/>
</svg>
