<svg width="121" height="121" viewBox="0 0 121 121" fill="none" xmlns="http://www.w3.org/2000/svg">
<rect x="0.128418" y="0.0144043" width="120.75" height="120.75" rx="33" fill="#00BA8B" fill-opacity="0.08"/>
<path d="M52.6837 22.7273C43.2597 24.9447 34.5917 32.6552 31.8704 41.2224C30.1065 46.8163 29.4514 53.1661 30.5097 53.8212C30.8121 54.0228 30.9129 54.3756 30.7113 54.6276C30.2577 55.4339 31.5176 60.1207 33.1303 63.346C36.7083 70.7037 43.1085 76.4992 44.318 73.4755C44.4692 73.0723 44.9228 72.8707 45.3259 73.0219C45.9811 73.2739 45.9307 73.4755 45.0236 74.181C43.7637 75.2393 44.0661 75.9448 46.1827 76.7008L47.6945 77.2047L47.5433 74.9873C47.4426 73.7274 47.2914 72.7699 47.1402 72.8203C46.7874 72.9715 44.2676 70.8549 41.2439 67.8816C39.6313 66.2185 37.9682 63.8499 36.7587 61.3302C35.0453 57.7521 34.8437 56.8954 34.6421 52.259C34.4405 48.0258 34.5917 46.5139 35.4484 43.6414C37.0107 38.6018 40.5384 33.7135 44.8724 30.7401C49.8111 27.3636 53.1876 26.4061 59.739 26.5069C65.6857 26.6077 68.3063 27.414 72.7411 30.2866C75.664 32.2016 80.25 37.2915 81.0059 39.5089C81.6106 41.2728 82.7697 41.7263 83.1729 40.4161C83.3745 39.9121 83.6769 39.5593 83.9288 39.7105C84.1808 39.8617 84.4832 39.5089 84.6848 38.9546C85.2895 37.09 80.8547 31.0929 76.3695 27.7668C73.9002 25.9022 68.5582 23.332 67.248 23.332C66.6432 23.332 66.2904 23.4832 66.4416 23.6344C66.5928 23.836 66.1897 24.4407 65.4841 24.9447C64.7786 25.499 64.073 25.8518 63.9219 25.6502C63.4683 25.247 64.829 23.7856 65.3329 24.1383C65.5849 24.2895 65.7865 24.0879 65.7865 23.6848C65.7865 22.6265 64.5266 22.2737 60.243 22.0217C57.7736 21.9209 55.1531 22.1729 52.6837 22.7273ZM32.4247 52.6621C32.2735 53.0149 31.7696 53.4181 31.2656 53.4685C30.5097 53.6701 30.4593 53.5693 31.064 52.8637C31.9208 51.9062 32.6767 51.8054 32.4247 52.6621Z" fill="#00BA8B"/>
<path d="M55.8586 30.3874C51.4238 33.0583 51.2222 38.8538 55.4555 41.4744C60.1926 44.3973 65.7865 40.8192 65.1818 35.2253C64.8794 32.5544 63.7707 31.0929 61.4021 30.085C59.1847 29.1275 57.7737 29.2283 55.8586 30.3874Z" fill="#00BA8B"/>
<path d="M84.0296 40.8696L82.4169 42.2303L83.1729 45.254C84.5839 51.0495 83.7272 57.2481 80.8043 62.7412C79.242 65.6641 74.8072 70.3005 71.8339 72.0644C70.5236 72.8203 70.322 73.2235 70.322 75.1385C70.322 77.1543 70.4228 77.3055 71.4307 76.9527C72.0355 76.8015 73.1946 76.1968 74.0513 75.6928C76.0671 74.4833 76.1175 74.4833 77.3774 76.2472C78.1333 77.3559 78.3349 77.9606 77.9821 78.4142C77.579 78.8677 78.6373 80.43 81.7618 84.0585C84.1304 86.8302 86.247 89.1484 86.4486 89.2492C86.6501 89.35 87.1541 89.098 87.5069 88.6948C87.91 88.3421 89.2707 87.2838 90.6314 86.4271C91.9417 85.5199 93 84.6128 93 84.4112C93 84.2097 92.3952 83.3529 91.6897 82.5466C90.9337 81.6899 88.8675 79.2709 87.1037 77.1039L83.828 73.2235L82.5681 74.2314C81.8626 74.7857 81.0562 75.0881 80.7539 74.8865C80.3507 74.6345 80.4011 74.4833 80.8043 74.3322C81.661 74.0802 81.5602 73.2235 80.6027 72.1148C79.7964 71.3084 79.8972 71.1068 81.6106 68.9902C87.2549 62.0861 89.3715 51.8054 86.9525 43.2886C86.3982 41.3736 85.8942 39.7609 85.7934 39.6601C85.6926 39.5593 84.8863 40.1137 84.0296 40.8696Z" fill="#00BA8B"/>
<path d="M54.5483 45.3548C51.1214 46.1612 50.0127 46.9171 47.241 50.2936C45.4771 52.4606 45.0236 53.5693 45.3259 55.0307C45.4771 55.7867 45.0236 58.1049 44.2676 60.5238C42.7558 65.1602 42.9574 66.3193 45.2755 66.5713C46.737 66.7729 47.3922 65.8154 48.8536 61.2294C49.3576 59.8183 49.9623 58.6088 50.2143 58.6088C50.7183 58.6088 50.7686 61.0278 50.6679 81.2868C50.6175 88.6445 50.7686 95.0447 50.9702 95.5487C51.1214 96.0526 51.8773 96.7582 52.6333 97.1109C53.742 97.7157 54.2459 97.7157 55.5058 97.1613C57.4208 96.355 57.7232 95.3975 57.7232 89.8036C57.7232 81.0348 58.328 73.2235 59.0335 73.2235C59.5375 73.2235 59.6886 75.2393 59.739 81.8915C59.7894 86.6791 59.8902 91.2651 59.991 92.1218C60.0414 92.9281 60.1422 94.0368 60.1926 94.4904C60.2934 95.9014 62.1076 97.4133 63.6699 97.4133C66.0889 97.4133 66.7944 96.103 66.7944 91.7186C66.7944 88.1909 66.3408 87.0318 65.5345 88.3421C65.3833 88.5941 64.829 88.8461 64.3754 88.7957C63.8211 88.7957 63.7707 88.6949 64.1738 88.4933C64.4762 88.3925 64.6778 88.0397 64.4762 87.7878C64.325 87.5358 64.3754 87.3342 64.6274 87.3846C65.4841 87.5358 66.996 87.2334 66.492 87.0318C66.0385 86.8303 66.0889 86.3263 66.6936 85.2176C67.0968 84.3609 67.3991 83.0506 67.3487 82.3451C67.2983 81.6395 67.1472 75.4913 67.0464 68.6879C66.7944 55.2323 66.8952 54.8292 69.3142 62.2373C69.9189 64.1019 70.7252 65.8658 71.1284 66.1681C71.9851 66.9241 74.1521 66.4201 74.5553 65.4122C74.7065 65.009 73.5978 60.9774 72.0859 56.4418C69.0622 47.421 68.4574 46.6147 64.3754 45.6068C60.243 44.5989 58.076 44.5485 54.5483 45.3548ZM64.9298 49.2353C65.9377 49.9912 66.0889 52.5614 65.1817 53.4685C63.7203 54.93 60.243 53.5189 60.243 51.5031C60.243 50.3944 62.158 48.5297 63.2163 48.5297C63.6699 48.5297 64.4258 48.8825 64.9298 49.2353ZM51.3734 52.511C52.5829 53.8213 52.2301 55.6355 50.5671 56.5426C48.7024 57.6009 46.6362 56.5426 46.6362 54.5268C46.6362 51.8054 49.6096 50.5456 51.3734 52.511ZM68.8102 53.8213C68.4574 54.2244 67.8527 54.5772 67.4495 54.5772C67.0464 54.5772 66.8448 54.7788 67.0464 55.0307C67.4999 55.7867 65.6353 56.593 64.7282 56.0387C64.2242 55.7363 64.4258 55.5851 65.5345 55.5347C66.3912 55.5347 66.744 55.3835 66.3408 55.2323C65.7865 55.0307 65.9377 54.7284 66.8448 54.0228C68.3567 52.8133 69.7173 52.7126 68.8102 53.8213ZM62.2588 59.012C62.2588 59.6671 61.6541 60.1207 61.1501 59.8183C60.6462 59.5159 61.0997 58.6088 61.8052 58.6088C62.0572 58.6088 62.2588 58.8104 62.2588 59.012ZM65.2825 80.2789C66.5928 81.5891 66.5424 82.597 65.0809 84.0585C63.6195 85.52 61.8556 85.2176 60.8981 83.3026C60.243 81.9419 60.8981 79.9261 62.2084 79.6237C63.8211 79.1702 64.2746 79.2709 65.2825 80.2789ZM63.7707 89.854C63.7707 90.106 63.4179 90.3579 62.9643 90.3579C62.5612 90.3579 62.3092 90.5595 62.4604 90.8115C62.8132 91.3658 61.5029 91.9706 61.0493 91.4666C60.8477 91.3154 61.2005 90.7611 61.8556 90.2571C63.1659 89.2492 63.7707 89.098 63.7707 89.854Z" fill="#00BA8B"/>
</svg>
