<svg width="62" height="62" viewBox="0 0 62 62" fill="none" xmlns="http://www.w3.org/2000/svg">
<path d="M18.6667 6C18.6667 2.68636 21.353 0 24.6667 0H37.3333C40.647 0 43.3333 2.68636 43.3333 6V17C43.3333 17.9204 44.0796 18.6667 45 18.6667H56C59.3136 18.6667 62 21.353 62 24.6667V37.3333C62 40.647 59.3136 43.3333 56 43.3333H48.3554C47.2982 43.3333 46.2843 42.9133 45.5367 42.1658C42.8152 39.4443 42.7423 35.1048 42.9768 31.2632C42.9922 31.0108 43 30.7563 43 30.5C43 23.7806 37.6274 18.3333 31 18.3333C24.3726 18.3333 19 23.7806 19 30.5C19 37.2194 24.3726 42.6667 31 42.6667C31.4264 42.6667 31.8476 42.6441 32.2625 42.6001C35.7833 42.2269 39.7717 42.2696 42.2752 44.7732C42.9527 45.4507 43.3333 46.3696 43.3333 47.3277V56C43.3333 59.3136 40.647 62 37.3333 62H24.6667C21.353 62 18.6667 59.3136 18.6667 56V45C18.6667 44.0796 17.9204 43.3333 17 43.3333H6C2.68636 43.3333 0 40.647 0 37.3333V24.6667C0 21.353 2.68636 18.6667 6 18.6667H17C17.9204 18.6667 18.6667 17.9204 18.6667 17V6Z" fill="white"/>
</svg>
