<svg width="121" height="121" viewBox="0 0 121 121" fill="none" xmlns="http://www.w3.org/2000/svg">
<rect x="0.111328" y="0.0144043" width="120.75" height="120.75" rx="33" fill="#AE8FF7" fill-opacity="0.1"/>
<path d="M81.1245 28.5235C79.2851 29.101 78.0231 30.9191 78.0231 32.9083C78.0445 33.5499 78.1515 34.2985 78.2798 34.5338C78.4937 34.9402 78.0659 35.4108 73.9592 39.5174C69.5745 43.8808 69.382 44.0305 68.8259 43.8166C67.7565 43.4316 66.0881 43.5599 64.9117 44.1374L63.8209 44.6935L60.0779 42.5974L56.3348 40.5227L56.2492 39.1752C56.1851 38.1058 56.0354 37.6566 55.522 36.9294C55.1584 36.416 54.7092 36.031 54.5167 36.031C54.3242 36.0524 54.2173 35.9883 54.2815 35.8813C54.474 35.5605 52.9767 35.0472 51.8645 35.0472C50.1106 35.0685 48.2712 36.1808 47.6723 37.6138C47.5654 37.9133 47.3942 38.5335 47.3301 39.0041L47.2017 39.8597L43.694 41.2072C40.2076 42.5333 40.1862 42.5547 39.737 42.1269C37.7479 40.3088 34.7534 40.4372 33.0209 42.4263C32.1226 43.4316 31.9087 44.0091 31.9087 45.3352C31.9087 48.5008 34.7106 50.5969 37.7265 49.7199C39.5231 49.2066 40.6354 47.8163 40.999 45.6774C41.0631 45.2497 41.2342 44.886 41.3626 44.886C41.4909 44.886 42.9881 44.3513 44.6779 43.7097C46.389 43.068 47.8648 42.5333 47.9717 42.5333C48.1001 42.5333 48.5492 42.8113 48.977 43.1535C50.517 44.3941 53.0409 44.4797 54.474 43.346L55.0087 42.9183L58.8373 45.0358L62.6659 47.1319L62.7515 48.458C63.0937 53.9335 71.2642 53.9977 71.6492 48.5435C71.692 47.8377 71.6492 46.9822 71.5209 46.6399C71.307 46.0197 71.414 45.9127 75.8415 41.4852C80.2476 37.1005 80.3973 36.9508 80.9748 37.186C82.7929 37.8705 85.274 37.0363 86.3862 35.3894C87.0706 34.3627 87.2845 32.5447 86.8781 31.3255C86.1509 29.0797 83.4559 27.7749 81.1245 28.5235Z" fill="#AE8FF7"/>
<path d="M80.6752 45.6347C79.6913 46.0839 79.0283 46.7256 78.4722 47.7736L78.0016 48.6292V68.8845V89.1611H74.8575H71.6919L71.6491 76.2636L71.585 63.3447L71.0075 62.5106C70.6866 62.0614 70.0663 61.4411 69.6172 61.1417C68.9541 60.6925 68.5905 60.607 67.1788 60.607C65.6816 60.607 65.4464 60.6711 64.6122 61.2486C64.1202 61.5909 63.4786 62.3181 63.2005 62.8314L62.7086 63.7725V76.4775V89.1611H59.5002H56.2919V72.2853C56.2919 60.885 56.2277 55.1956 56.0566 54.7892C55.7358 53.9336 54.6236 52.8214 53.6183 52.3509C51.4794 51.367 48.8486 52.3295 47.715 54.5325C47.33 55.3239 47.3086 55.9442 47.3086 72.2639V89.1611H44.1644H40.9988V75.3011C40.9988 60.222 41.0202 60.5214 39.7583 59.2167C37.983 57.3986 35.3094 57.2489 33.47 58.8531C31.8444 60.2861 31.9086 59.5803 31.9086 75.1942V89.1611H30.0905H28.2725V90.9792V92.7972H59.5002H90.728V90.9792V89.1611H88.91H87.0919V68.8845V48.5864L86.6 47.6453C86.3219 47.132 85.6802 46.4261 85.1883 46.0625C84.4397 45.5492 84.0547 45.4209 82.8569 45.3781C81.8944 45.3353 81.1672 45.4209 80.6752 45.6347Z" fill="#AE8FF7"/>
</svg>
