<svg width="121" height="121" viewBox="0 0 121 121" fill="none" xmlns="http://www.w3.org/2000/svg">
<rect x="0.233887" y="0.0144043" width="120.75" height="120.75" rx="33" fill="#EEB300" fill-opacity="0.08"/>
<path d="M32.1284 35.141C31.1368 35.141 30.3061 34.805 29.6364 34.133C28.9644 33.4633 28.6284 32.6327 28.6284 31.641C28.6284 30.6493 28.9644 29.8175 29.6364 29.1455C30.3061 28.4758 31.1368 28.141 32.1284 28.141H67.1284C68.1201 28.141 68.9519 28.4758 69.6239 29.1455C70.2936 29.8175 70.6284 30.6493 70.6284 31.641C70.6284 32.6327 70.2936 33.4633 69.6239 34.133C68.9519 34.805 68.1201 35.141 67.1284 35.141H32.1284ZM49.6284 78.891C51.0868 78.891 52.3258 78.38 53.3454 77.358C54.3674 76.3383 54.8784 75.0993 54.8784 73.641V70.141H58.3784C59.8368 70.141 61.0758 69.63 62.0954 68.608C63.1174 67.5883 63.6284 66.3493 63.6284 64.891C63.6284 63.4327 63.1174 62.1937 62.0954 61.174C61.0758 60.152 59.8368 59.641 58.3784 59.641H54.8784V56.141C54.8784 54.6827 54.3674 53.4437 53.3454 52.424C52.3258 51.402 51.0868 50.891 49.6284 50.891C48.1701 50.891 46.9311 51.402 45.9114 52.424C44.8894 53.4437 44.3784 54.6827 44.3784 56.141V59.641H40.8784C39.4201 59.641 38.1811 60.152 37.1614 61.174C36.1394 62.1937 35.6284 63.4327 35.6284 64.891C35.6284 66.3493 36.1394 67.5883 37.1614 68.608C38.1811 69.63 39.4201 70.141 40.8784 70.141H44.3784V73.641C44.3784 75.0993 44.8894 76.3383 45.9114 77.358C46.9311 78.38 48.1701 78.891 49.6284 78.891ZM32.1284 91.141C30.2034 91.141 28.5561 90.4562 27.1864 89.0865C25.8144 87.7145 25.1284 86.066 25.1284 84.141V45.641C25.1284 43.716 25.8144 42.0687 27.1864 40.699C28.5561 39.327 30.2034 38.641 32.1284 38.641H67.1284C69.0534 38.641 70.7019 39.327 72.0739 40.699C73.4436 42.0687 74.1284 43.716 74.1284 45.641V84.141C74.1284 86.066 73.4436 87.7145 72.0739 89.0865C70.7019 90.4562 69.0534 91.141 67.1284 91.141H32.1284ZM88.1284 91.141C87.1368 91.141 86.3061 90.805 85.6364 90.133C84.9644 89.4633 84.6284 88.6327 84.6284 87.641V65.766C82.5868 64.7743 80.9091 63.1258 79.5954 60.8205C78.2841 58.5175 77.6284 55.791 77.6284 52.641C77.6284 48.6743 78.6353 45.3493 80.6489 42.666C82.6603 39.9827 85.1534 38.641 88.1284 38.641C91.1034 38.641 93.5978 39.9827 95.6114 42.666C97.6227 45.3493 98.6284 48.6743 98.6284 52.641C98.6284 55.791 97.9727 58.5175 96.6614 60.8205C95.3477 63.1258 93.6701 64.7743 91.6284 65.766V87.641C91.6284 88.6327 91.2924 89.4633 90.6204 90.133C89.9508 90.805 89.1201 91.141 88.1284 91.141Z" fill="#EEB300"/>
</svg>
