<svg width="57" height="56" viewBox="0 0 57 56" fill="none" xmlns="http://www.w3.org/2000/svg">
<path d="M55.6283 28C55.6283 12.8956 43.3838 0.651123 28.2795 0.651123C13.1752 0.651123 0.930664 12.8956 0.930664 28C0.930664 43.1043 13.1752 55.3488 28.2795 55.3488C43.3838 55.3488 55.6283 43.1043 55.6283 28Z" stroke="#066365"/>
<path d="M37.5289 21.7179C36.8254 22.0298 36.0791 22.2344 35.3149 22.3248C36.1183 21.8439 36.7199 21.0877 37.008 20.1968C36.2511 20.6448 35.4236 20.961 34.5609 21.1319C33.9803 20.5137 33.2119 20.1043 32.375 19.9672C31.538 19.8301 30.6792 19.9729 29.9317 20.3735C29.1841 20.7741 28.5897 21.4102 28.2404 22.183C27.8911 22.9559 27.8065 23.8224 27.9998 24.6481C26.4682 24.5706 24.97 24.1717 23.6027 23.4773C22.2354 22.7828 21.0295 21.8085 20.0634 20.6175C19.5717 21.465 19.4212 22.4681 19.6425 23.4227C19.8639 24.3773 20.4404 25.2118 21.255 25.7564C20.6436 25.7362 20.0459 25.5706 19.5112 25.2733V25.3215C19.5112 26.2106 19.8186 27.0723 20.3814 27.7606C20.9442 28.449 21.7277 28.9215 22.599 29.0982C22.268 29.186 21.9269 29.2298 21.5845 29.2284C21.3409 29.2286 21.098 29.2046 20.8591 29.1568C21.1048 29.9218 21.5835 30.5908 22.2283 31.0702C22.873 31.5496 23.6515 31.8154 24.4548 31.8305C23.0908 32.8995 21.407 33.4788 19.674 33.4753C19.3672 33.4752 19.0607 33.4578 18.7559 33.4232C20.4103 34.4844 22.3199 35.0806 24.2843 35.1491C26.2486 35.2177 28.1951 34.756 29.9195 33.8126C31.6438 32.8692 33.0823 31.479 34.0839 29.7878C35.0856 28.0967 35.6134 26.167 35.6119 24.2015L35.5988 23.7027C36.3559 23.1618 37.0085 22.488 37.525 21.714L37.5289 21.7179Z" fill="#057476"/>
</svg>
