<svg width="57" height="56" viewBox="0 0 57 56" fill="none" xmlns="http://www.w3.org/2000/svg">
<path d="M55.4887 28C55.4887 12.8956 43.2442 0.651123 28.1399 0.651123C13.0355 0.651123 0.791016 12.8956 0.791016 28C0.791016 43.1043 13.0355 55.3488 28.1399 55.3488C43.2442 55.3488 55.4887 43.1043 55.4887 28Z" stroke="#066365"/>
<path d="M38.6493 22.5107C37.8758 21.5899 36.4458 21.2148 33.7161 21.2148H23.8054C21.0132 21.2148 19.5598 21.6146 18.7876 22.594C18.0361 23.5499 18.0361 24.9577 18.0361 26.9047V30.6189C18.0361 34.3957 18.9282 36.3101 23.8054 36.3101H33.7161C36.0838 36.3101 37.3952 35.9793 38.2443 35.1666C39.1143 34.3344 39.4854 32.9735 39.4854 30.6189V26.906C39.4854 24.8509 39.4268 23.4353 38.6493 22.5107ZM31.8069 29.2749L27.3074 31.6269C27.2019 31.6824 27.0839 31.7096 26.9648 31.706C26.8457 31.7024 26.7295 31.6681 26.6276 31.6063C26.5256 31.5446 26.4414 31.4576 26.383 31.3537C26.3246 31.2499 26.294 31.1327 26.2942 31.0135V26.3251C26.294 26.2062 26.3244 26.0893 26.3826 25.9856C26.4408 25.8819 26.5248 25.795 26.6263 25.7332C26.7279 25.6714 26.8438 25.6368 26.9626 25.6328C27.0814 25.6289 27.1993 25.6556 27.3048 25.7105L31.8043 28.0468C31.9169 28.1051 32.0112 28.1932 32.0771 28.3015C32.143 28.4098 32.1778 28.5341 32.1778 28.6609C32.1778 28.7876 32.143 28.9119 32.0771 29.0202C32.0112 29.1285 31.9169 29.2166 31.8043 29.2749H31.8069Z" fill="#057476"/>
</svg>
